<?xml version="1.0" encoding="UTF-8" standalone="no"?>
<!-- Generator: Adobe Illustrator 25.4.1, SVG Export Plug-In . SVG Version: 6.00 Build 0)  -->

<svg
   version="1.1"
   id="Layer_1"
   x="0px"
   y="0px"
   viewBox="0 0 187.99968 200.88623"
   xml:space="preserve"
   sodipodi:docname="shapeshifter-icon-white.svg"
   width="187.99968"
   height="200.88623"
   inkscape:version="1.1.2 (b8e25be8, 2022-02-05)"
   inkscape:export-filename="/Users/johnmertic/Code/lfenergy-artwork/projects/shapeshifter/icon/white/shapeshifter-icon-white.png"
   inkscape:export-xdpi="377.10001"
   inkscape:export-ydpi="377.10001"
   xmlns:inkscape="http://www.inkscape.org/namespaces/inkscape"
   xmlns:sodipodi="http://sodipodi.sourceforge.net/DTD/sodipodi-0.dtd"
   xmlns="http://www.w3.org/2000/svg"
   xmlns:svg="http://www.w3.org/2000/svg"><defs
   id="defs304" /><sodipodi:namedview
   id="namedview302"
   pagecolor="#ffffff"
   bordercolor="#666666"
   borderopacity="1.0"
   inkscape:pageshadow="2"
   inkscape:pageopacity="0.0"
   inkscape:pagecheckerboard="0"
   showgrid="false"
   inkscape:zoom="1.127"
   inkscape:cx="365.12866"
   inkscape:cy="115.79414"
   inkscape:window-width="1371"
   inkscape:window-height="915"
   inkscape:window-x="58"
   inkscape:window-y="25"
   inkscape:window-maximized="0"
   inkscape:current-layer="Layer_1" />
<style
   type="text/css"
   id="style235">
	.st0{fill:none;}
	.st1{opacity:0.65;fill:#FFFFFF;}
	.st2{fill:#AF1E51;}
	.st3{fill:#FFFFFF;}
	.st4{opacity:0.65;}
	.st5{fill:#163963;}
	.st6{fill:#1D99D6;}
	.st7{fill:#EE2C38;}
</style>
<path
   class="st0"
   d="m 148.64762,33.74939 c 0,0 -7.06964,6.998779 0.22376,13.997558 0,0 6.74377,-6.998779 -0.22376,-13.997558 z"
   id="path237" />
<path
   class="st1"
   d="m 47.07371,169.5885 c -0.85138,-1.4223 -1.615418,-3.20056 -2.140809,-5.41949 -0.445251,-0.0517 -0.889648,-0.11103 -1.331298,-0.19184 -3.951355,-0.46356 -7.806702,-1.54437 -11.554139,-2.90033 -3.755737,-1.35772 -7.328857,-3.22674 -10.688598,-5.41784 -2.929199,-1.91388 -5.768433,-4.17871 -8.154236,-6.64942 0.653564,-0.5188 1.247681,-1.18176 1.735413,-2.05078 3.34674,-5.96319 -3.665161,-11.00152 -3.665161,-11.00152 -5.6196905,-4.07178 -3.6024781,-7.0777 -3.6024781,-7.0777 -5.129273,4.55102 -4.1582647,11.68701 -4.1582647,11.68701 -1.4390259,-0.67548 -1.3546753,-5.35999 -1.3546753,-5.35999 -0.3990479,0.75275 -3.7990723,6.13044 -1.17138673,10.52027 1.70471193,2.84796 5.65802003,5.01172 9.14093083,4.56415 2.712402,3.28961 5.750671,5.98516 9.089965,8.44281 3.467346,2.52618 7.201355,4.72772 11.179871,6.40576 3.968201,1.67541 8.10791,3.06091 12.382202,3.79272 1.416015,0.3288 2.852173,0.50141 4.292664,0.65619 z"
   id="path239" />
<path
   class="st2"
   d="m 53.477457,169.99591 c 0.0036,0.002 0.0066,0.005 0.01019,0.007 4.88e-4,0 9.15e-4,7e-5 0.0014,7e-5 -0.103577,-0.0785 -0.207703,-0.15735 -0.307495,-0.2342 0.100769,0.0748 0.190185,0.1543 0.295898,0.22681 z"
   id="path241" />





















<path
   class="st1"
   d="m 65.486368,192.80023 -13.320434,-1.1159 -1.871521,-7.15998 11.595886,-4.39404 c 0,0 -4.77124,-2.01654 -9.258362,-5.32178 -2.44e-4,6e-5 -0.0026,6.7e-4 -0.0026,6.7e-4 0,0 -0.762817,-0.28149 -1.823852,-1.04669 -1.725403,-0.0785 -3.304993,-0.28192 -4.74884,-0.57104 l -8.012879,13.17627 c 8.847657,4.53692 9.187989,14.51849 9.187989,14.51849 h 20.502563 c 5.216003,-5.64069 10.123779,0 10.123779,0 -1.19104,-8.19488 -12.371765,-8.086 -12.371765,-8.086 z"
   id="path287" />
<path
   class="st1"
   d="m 152.13273,187.41046 -5.47858,-1.51141 -5.26556,-12.90686 c -1.64886,1.09674 -4.62958,2.91046 -8.71588,4.72766 l 12.84698,19.62164 h 13.75916 l -3.15332,-3.94189 z"
   id="path289" />
<path
   class="st1"
   d="m 83.65391,179.24841 c 4.880066,1.08673 9.454834,1.72229 13.760189,1.99958 11.412661,0.56189 27.956551,-1.1717 42.200501,-12.60456 9.8e-4,-8.5e-4 0.002,-0.002 0.003,-0.003 l -6.37811,-14.86487 c -11.53833,14.95673 -29.40234,24.78308 -49.58557,25.47247 z"
   id="path291" />
<path
   class="st1"
   d="m 146.83891,113.82751 c 0,7.10804 -1.13318,13.9513 -3.22821,20.35932 l 13.11865,21.83459 c 2.08484,-6.41858 1.66486,-13.77887 1.66486,-13.77887 2.26855,2.49579 4.96673,8.96143 4.96673,8.96143 4.99097,-11.34399 -1.79077,-24.16113 -1.79077,-24.16113 4.53735,2.72229 6.12537,9.30121 6.12537,9.30121 4.91491,-47.042912 -28.47089,-60.674443 -43.8299,-72.316411 14.05957,12.006409 22.97327,29.862121 22.97327,49.799861 z"
   id="path293" />
<path
   class="st1"
   d="m 87.630106,131.10846 c -12.350952,0 -22.363464,-10.01294 -22.363464,-22.36401 0,-5.11969 1.739135,-9.82215 4.633178,-13.591618 -2.80365,-0.847656 -17.723693,-6.777588 -21.597656,-37.8255 -0.847534,-6.792603 -1.166321,-14.787415 -0.713928,-24.194336 0.142456,-2.962036 0.361328,-6.063904 0.664307,-9.312439 0,0 -3.513611,3.37854 -7.560059,9.292419 -5.034302,7.357788 -10.893372,18.640015 -11.836609,32.223206 0,0 -3.743225,-7.486145 -0.680603,-15.312928 0,0 -16.259705,14.548645 -9.341248,44.4292 0.63794,2.755066 1.472535,5.640196 2.535462,8.656556 0,0 -1.903626,-1.08795 -3.839478,-3.77832 -1.814819,-2.522218 -3.657959,-6.452821 -3.987304,-12.215883 0,0 -7.6874395,22.624023 3.760498,40.166383 2.801208,4.29242 6.747802,8.28064 12.233337,11.55865 0,0 -5.358459,-0.46582 -9.521179,-2.16876 -0.868164,-0.35516 -1.684387,-0.7641 -2.389099,-1.23389 0,0 2.559753,9.21174 10.519897,16.49415 5.343445,4.88842 13.12024,8.90753 24.190003,8.68713 21.617614,-0.43042 38.135742,-18.26398 38.135742,-18.26398 0,0 -0.009,0.0184 -0.02716,0.0539 4.6745,-4.84943 8.597287,-10.42835 11.580997,-16.5492 -3.88996,3.27551 -8.912235,5.24927 -14.395634,5.24927 z"
   id="path295" />
<path
   class="st3"
   d="m 182.15794,190.73474 -17.52515,-4.83569 -7.79455,-19.82984 -13.33533,-31.55548 -0.72113,-1.70654 0.82892,1.37964 c 2.09503,-6.40802 3.22821,-13.25128 3.22821,-20.35932 0,-19.93774 -8.9137,-37.793453 -22.97327,-49.799861 -0.90332,-0.684693 -1.7442,-1.362549 -2.51141,-2.039856 -3.04694,-2.690308 -4.92957,-5.372803 -4.92957,-8.448181 0,-4.310425 1.99152,-9.088685 9.52826,-9.074707 18.6026,0.03448 20.30408,21.892272 20.30408,21.892272 0,0 9.18805,-3.062927 8.84766,-13.952209 0,0 18.03564,-30.625977 -16.67432,-52.404968 0,0 5.78491,9.5281373 4.76404,15.313354 0,0 -25.86231,-14.2923579 -53.085636,7.826843 0,0 8.507265,-1.701782 11.910156,0.340149 0,0 -15.845337,3.169373 -18.920227,22.768555 -0.108399,0.690918 -0.200867,1.402283 -0.276307,2.134583 -0.213623,2.075012 -0.289978,4.31842 -0.200134,6.743774 0.645203,17.420288 18.073308,30.544922 24.486088,42.651245 0.51025,0.904357 0.9602,1.847167 1.34399,2.823057 0.99213,2.52313 1.54126,5.26776 1.54126,8.14289 0,6.86767 -3.09582,13.01226 -7.96783,17.11474 -2.983711,6.12085 -6.906499,11.69977 -11.580998,16.5492 -0.612732,1.20141 -11.735047,22.14202 -40.929138,21.9981 0.447143,1.56507 1.325622,3.37818 3.046936,4.87696 0.149597,0.13025 0.316406,0.25317 0.478943,0.37823 0.04663,0.0358 0.09241,0.0721 0.140075,0.10742 0.09979,0.0768 0.203919,0.1557 0.307495,0.2342 0.0088,0.007 0.0174,0.0132 0.02624,0.0199 0.19928,0.138 0.376038,0.27179 0.540467,0.40339 2.313293,1.70581 5.486023,3.76715 9.850219,6.18512 0.316773,0.17559 0.615113,0.36212 0.895997,0.55822 5.748596,4.01264 4.208496,12.03333 4.208496,12.03333 0,0 13.271545,2.38171 14.292297,11.22992 h 18.205621 c 0,0 3.65827,-7.31678 9.86853,0 0,0 -0.1701,-7.48664 -6.29535,-8.33771 l -19.737053,-4.25385 -3.743164,-3.74328 1.915466,-4.84522 0.01282,-0.0323 c 0.0415,0.009 0.08282,0.0182 0.124267,0.0275 20.183234,-0.68939 38.047244,-10.51574 49.585574,-25.47247 l -3.2973,-7.68469 4.15076,6.55365 9.04339,14.27887 11.36688,16.98034 4.83313,7.22004 3.37659,5.04394 0.78565,1.1734 h 0.51037 3.46314 10.65905 c 4.65076,-6.03961 9.86853,0 9.86853,0 0,-5.30261 -5.84173,-6.60675 -5.84173,-6.60675 z M 148.64762,33.74939 c 6.96753,6.998779 0.22376,13.997558 0.22376,13.997558 -7.2934,-6.998779 -0.22376,-13.997558 -0.22376,-13.997558 z"
   id="path297" />

</svg>
